<svg xmlns="http://www.w3.org/2000/svg" viewBox="0 0 200 200" fill="none">
        stroke="#1a1a2e" stroke-width="5" fill="none" stroke-linecap="round"/>

  <path d="M47,92 Q37,34 62,28 Q82,44 82,64 Z" fill="#1a1a2e"/>
  <path d="M153,92 Q163,34 138,28 Q118,44 118,64 Z" fill="#1a1a2e"/>
  <path d="M54,84 Q44,46 62,40 Q78,50 78,64 Z" fill="#4f8ef7"/>
  <path d="M146,84 Q156,46 138,40 Q122,50 122,64 Z" fill="#4f8ef7"/>

  <circle cx="100" cy="115" r="58" fill="#1a1a2e"/>

  <ellipse cx="72" cy="103" rx="17" ry="19" fill="#fff"/>
  <ellipse cx="72" cy="103" rx="11" ry="13" fill="#1a1a2e"/>
  <circle cx="77" cy="96" r="5.5" fill="#fff"/>
  <circle cx="67" cy="108" r="2.5" fill="#fff"/>

  <ellipse cx="128" cy="103" rx="17" ry="19" fill="#fff"/>
  <ellipse cx="128" cy="103" rx="11" ry="13" fill="#1a1a2e"/>
  <circle cx="133" cy="96" r="5.5" fill="#fff"/>
  <circle cx="123" cy="108" r="2.5" fill="#fff"/>

  <ellipse cx="100" cy="130" rx="4.5" ry="3.5" fill="#4f8ef7"/>

  <path d="M90,138 Q95,146 100,138 Q105,146 110,138"
        stroke="#fff" stroke-width="2.5" fill="none" stroke-linecap="round" stroke-linejoin="round"/>

  <ellipse cx="48" cy="120" rx="10" ry="6" fill="#ffb5c5" opacity="0.55"/>
  <ellipse cx="152" cy="120" rx="10" ry="6" fill="#ffb5c5" opacity="0.55"/>

  <path d="M26,112 Q16,110 8,112" stroke="#4f8ef7" stroke-width="2" fill="none" stroke-linecap="round" opacity="0.6"/>
  <path d="M26,120 Q14,120 6,124" stroke="#4f8ef7" stroke-width="2" fill="none" stroke-linecap="round" opacity="0.6"/>
  <path d="M174,112 Q184,110 192,112" stroke="#4f8ef7" stroke-width="2" fill="none" stroke-linecap="round" opacity="0.6"/>
  <path d="M174,120 Q186,120 194,124" stroke="#4f8ef7" stroke-width="2" fill="none" stroke-linecap="round" opacity="0.6"/>

</svg>
